HIERARCHY
ROOT Hips
{
	OFFSET 0.000000 0.000000 0.000000 
	CHANNELS 6 Xposition Yposition Zposition Yrotation Xrotation Zrotation
	JOINT Spine
	{
		OFFSET 0.000000 0.072080 0.012321 
		CHANNELS 3 Xrotation Yrotation Zrotation
		JOINT Spine1
		{
			OFFSET 0.000000 0.126984 -0.001294 
			CHANNELS 3 Xrotation Yrotation Zrotation
			JOINT Spine2
			{
				OFFSET 0.000000 0.106559 -0.010096 
				CHANNELS 3 Xrotation Yrotation Zrotation
				JOINT Neck
				{
					OFFSET 0.000000 0.108417 -0.034017 
					CHANNELS 3 Xrotation Yrotation Zrotation
					JOINT Neck1
					{
						OFFSET 0.000000 0.033906 0.007241 
						CHANNELS 3 Xrotation Yrotation Zrotation
						JOINT Head
						{
							OFFSET 0.000000 0.031458 0.006707 
							CHANNELS 3 Xrotation Yrotation Zrotation
							End Site
							{
								OFFSET 0.000000 0.179920 0.000962 
							}
						}
					}
				}
				JOINT LeftShoulder
				{
					OFFSET 0.048002 0.079586 -0.029634 
					CHANNELS 3 Zrotation Xrotation Yrotation
					JOINT LeftArm
					{
						OFFSET 0.096243 -0.008695 -0.014012 
						CHANNELS 3 Zrotation Xrotation Yrotation
						JOINT LeftForeArm
						{
							OFFSET 0.216305 0.000000 0.000000 
							CHANNELS 3 Xrotation Zrotation Yrotation
							JOINT LeftHand
							{
								OFFSET 0.217764 0.000000 0.000000 
								CHANNELS 3 Zrotation Yrotation Xrotation
								JOINT LeftHandThumb1
								{
									OFFSET 0.018582 -0.007835 0.020476 
									CHANNELS 3 Zrotation Xrotation Yrotation
									JOINT LeftHandThumb2
									{
										OFFSET 0.026269 -0.007835 0.022186 
										CHANNELS 3 Zrotation Xrotation Yrotation
										JOINT LeftHandThumb3
										{
											OFFSET 0.035170 -0.010504 0.017018 
											CHANNELS 3 Zrotation Xrotation Yrotation
											End Site
											{
												OFFSET 0.020312 -0.007813 0.007813 
											}
										}
									}
								}
								JOINT LeftHandMiddle1
								{
									OFFSET 0.081749 0.004803 0.003358 
									CHANNELS 3 Zrotation Xrotation Yrotation
									JOINT LeftHandMiddle2
									{
										OFFSET 0.045251 0.000000 0.000000 
										CHANNELS 3 Zrotation Xrotation Yrotation
										JOINT LeftHandMiddle3
										{
											OFFSET 0.029009 0.000000 0.000000 
											CHANNELS 3 Zrotation Xrotation Yrotation
											End Site
											{
												OFFSET 0.017969 0.000000 0.000000 
											}
										}
									}
								}
								JOINT LeftHandIndex1
								{
									OFFSET 0.081207 0.004803 0.021137 
									CHANNELS 3 Zrotation Xrotation Yrotation
									JOINT LeftHandIndex2
									{
										OFFSET 0.043354 0.000000 0.000000 
										CHANNELS 3 Zrotation Xrotation Yrotation
										JOINT LeftHandIndex3
										{
											OFFSET 0.026493 0.000000 0.000000 
											CHANNELS 3 Zrotation Xrotation Yrotation
											End Site
											{
												OFFSET 0.019531 0.000000 0.000000 
											}
										}
									}
								}
								JOINT LeftHandRing1
								{
									OFFSET 0.080666 0.002509 -0.014652 
									CHANNELS 3 Zrotation Xrotation Yrotation
									JOINT LeftHandRing2
									{
										OFFSET 0.042541 0.000000 0.000000 
										CHANNELS 3 Zrotation Xrotation Yrotation
										JOINT LeftHandRing3
										{
											OFFSET 0.029009 0.000000 0.000000 
											CHANNELS 3 Zrotation Xrotation Yrotation
											End Site
											{
												OFFSET 0.015625 0.000000 0.000000 
											}
										}
									}
								}
								JOINT LeftHandPinky1
								{
									OFFSET 0.078227 -0.000612 -0.030993 
									CHANNELS 3 Zrotation Xrotation Yrotation
									JOINT LeftHandPinky2
									{
										OFFSET 0.028721 0.000000 0.000000 
										CHANNELS 3 Zrotation Xrotation Yrotation
										JOINT LeftHandPinky3
										{
											OFFSET 0.021963 0.000000 0.000000 
											CHANNELS 3 Zrotation Xrotation Yrotation
											End Site
											{
												OFFSET 0.022656 0.000000 0.000000 
											}
										}
									}
								}
							}
						}
					}
				}
				JOINT RightShoulder
				{
					OFFSET -0.047970 0.079586 -0.029634 
					CHANNELS 3 Zrotation Xrotation Yrotation
					JOINT RightArm
					{
						OFFSET -0.096274 -0.008695 -0.014012 
						CHANNELS 3 Zrotation Xrotation Yrotation
						JOINT RightForeArm
						{
							OFFSET -0.216305 0.000000 0.000000 
							CHANNELS 3 Xrotation Zrotation Yrotation
							JOINT RightHand
							{
								OFFSET -0.217764 0.000000 0.000000 
								CHANNELS 3 Zrotation Yrotation Xrotation
								JOINT RightHandThumb1
								{
									OFFSET -0.019670 -0.007318 0.019638 
									CHANNELS 3 Zrotation Xrotation Yrotation
									JOINT RightHandThumb2
									{
										OFFSET -0.025498 -0.008492 0.023179 
										CHANNELS 3 Zrotation Xrotation Yrotation
										JOINT RightHandThumb3
										{
											OFFSET -0.034504 -0.010705 0.016680 
											CHANNELS 3 Zrotation Xrotation Yrotation
											End Site
											{
												OFFSET -0.020312 -0.007813 0.007813 
											}
										}
									}
								}
								JOINT RightHandIndex1
								{
									OFFSET -0.081770 0.003825 0.021187 
									CHANNELS 3 Zrotation Xrotation Yrotation
									JOINT RightHandIndex2
									{
										OFFSET -0.042006 0.000000 0.000000 
										CHANNELS 3 Zrotation Xrotation Yrotation
										JOINT RightHandIndex3
										{
											OFFSET -0.026449 0.000000 0.000000 
											CHANNELS 3 Zrotation Xrotation Yrotation
											End Site
											{
												OFFSET -0.020312 0.000000 0.000000 
											}
										}
									}
								}
								JOINT RightHandMiddle1
								{
									OFFSET -0.084059 0.003825 0.003342 
									CHANNELS 3 Zrotation Xrotation Yrotation
									JOINT RightHandMiddle2
									{
										OFFSET -0.043881 0.000000 0.000000 
										CHANNELS 3 Zrotation Xrotation Yrotation
										JOINT RightHandMiddle3
										{
											OFFSET -0.029191 0.000000 0.000000 
											CHANNELS 3 Zrotation Xrotation Yrotation
											End Site
											{
												OFFSET -0.017969 0.000000 0.000000 
											}
										}
									}
								}
								JOINT RightHandRing1
								{
									OFFSET -0.081798 0.003030 -0.015127 
									CHANNELS 3 Zrotation Xrotation Yrotation
									JOINT RightHandRing2
									{
										OFFSET -0.042198 0.000000 0.000000 
										CHANNELS 3 Zrotation Xrotation Yrotation
										JOINT RightHandRing3
										{
											OFFSET -0.026497 0.000000 0.000000 
											CHANNELS 3 Zrotation Xrotation Yrotation
											End Site
											{
												OFFSET -0.017188 0.000000 0.000000 
											}
										}
									}
								}
								JOINT RightHandPinky1
								{
									OFFSET -0.077902 -0.000930 -0.030891 
									CHANNELS 3 Zrotation Xrotation Yrotation
									JOINT RightHandPinky2
									{
										OFFSET -0.028538 0.000000 0.000000 
										CHANNELS 3 Zrotation Xrotation Yrotation
										JOINT RightHandPinky3
										{
											OFFSET -0.021734 0.000000 0.000000 
											CHANNELS 3 Zrotation Xrotation Yrotation
											End Site
											{
												OFFSET -0.022656 0.000000 0.000000 
											}
										}
									}
								}
							}
						}
					}
				}
			}
		}
	}
	JOINT LeftUpLeg
	{
		OFFSET 0.075264 -0.025573 0.000000 
		CHANNELS 3 Xrotation Yrotation Zrotation
		JOINT LeftLeg
		{
			OFFSET 0.000000 -0.326016 -0.013516 
			CHANNELS 3 Xrotation Yrotation Zrotation
			JOINT LeftFoot
			{
				OFFSET 0.000098 -0.306172 -0.006623 
				CHANNELS 3 Xrotation Yrotation Zrotation
				JOINT LeftToeBase
				{
					OFFSET -0.001432 -0.095259 0.064705 
					CHANNELS 3 Xrotation Yrotation Zrotation
					End Site
					{
						OFFSET 0.000000 0.000000 0.079438 
					}
				}
			}
		}
	}
	JOINT RightUpLeg
	{
		OFFSET -0.075264 -0.025573 0.000000 
		CHANNELS 3 Xrotation Yrotation Zrotation
		JOINT RightLeg
		{
			OFFSET 0.000000 -0.326016 -0.013516 
			CHANNELS 3 Xrotation Yrotation Zrotation
			JOINT RightFoot
			{
				OFFSET 0.000098 -0.306172 -0.006623 
				CHANNELS 3 Xrotation Yrotation Zrotation
				JOINT RightToeBase
				{
					OFFSET -0.001432 -0.095259 0.064705 
					CHANNELS 3 Xrotation Yrotation Zrotation
					End Site
					{
						OFFSET 0.000025 0.000000 0.079438 
					}
				}
			}
		}
	}
}
MOTION
Frames: 6
Frame Time: 0.033333
0.000515 0.662285 -0.003834 -1.167600 11.277400 -5.039200 10.012900 1.530300 6.940600 2.029100 -0.047000 0.508500 4.987200 -0.052500 0.186500 -3.841300 -0.341700 -0.277900 -0.000000 0.000000 -0.000000 -16.135799 0.809300 -3.139600 -11.747300 1.425900 -4.110500 -57.636200 11.642500 9.066700 -0.000000 -0.000000 -90.000000 8.779600 -0.428400 9.306300 -12.628500 3.701500 11.610100 17.609501 10.002900 3.533400 17.914801 -8.229400 -42.024300 -77.331802 0.012600 -0.098000 -78.270500 0.012000 -0.014700 -61.800900 0.007900 -0.013200 -87.477203 2.420200 3.962600 -72.173798 0.010400 -0.014300 -86.204597 0.014000 -0.015000 -75.254204 0.012100 -2.049600 -90.934998 0.015300 -0.015000 -70.365097 0.010000 -0.014200 -75.013702 -4.884700 3.583200 -75.828102 0.011400 -0.014600 -73.374199 0.010700 -0.014400 11.781100 1.474100 4.278000 39.390301 5.205700 29.511400 0.000000 -0.001200 90.272301 -9.237500 10.000200 10.390900 2.931600 11.677800 -12.729000 -13.698800 -3.275100 3.462300 -20.508301 -13.208000 17.739599 70.509697 1.232600 7.779100 75.175400 0.005900 0.007700 56.101700 0.003500 0.006600 72.233398 0.005800 6.793000 78.992599 0.006400 0.007800 72.406601 0.005500 0.007600 76.496002 0.006400 7.776700 70.821701 0.005300 0.007500 66.511200 0.004800 0.007300 81.855904 -0.097800 5.705700 75.840103 0.006000 0.007700 42.681599 0.002100 0.005400 -52.353901 -0.530500 8.250400 132.215195 5.102000 0.229300 -4.425000 0.817400 -2.497200 -0.230000 0.000000 0.000000 -35.889198 -10.545200 6.011300 59.542400 0.564700 1.288500 -34.764400 2.765300 -7.486300 1.449300 0.000000 0.000000 
0.002627 0.667599 0.105918 -1.681000 9.490000 -1.159400 10.667200 6.424800 1.990700 2.448900 2.688700 0.185400 5.397900 2.716100 -0.160300 -3.448300 -1.895800 -0.088200 -0.000000 0.000000 -0.000000 -15.249000 -7.164800 -4.298800 -10.487700 1.333900 -4.071700 -56.379501 13.093400 14.184200 -0.000000 0.000000 -78.214798 4.482000 -5.422900 4.460600 -12.628500 3.701400 11.610100 14.477000 9.286300 12.922800 20.941000 -8.038900 -40.651299 -78.190697 0.012800 0.013900 -78.195702 0.012000 -0.014700 -61.731300 0.007900 -0.013200 -91.096802 2.611100 3.653200 -71.166603 0.010200 -0.014200 -85.197403 0.013800 -0.015000 -77.500801 0.012600 -2.529500 -91.012497 0.015300 -0.015000 -70.408897 0.010000 -0.014100 -73.680603 -4.629500 3.125700 -76.033997 0.011400 -0.014600 -73.579201 0.010800 -0.014400 10.565700 1.111900 2.718900 35.588200 1.010400 43.784801 0.000000 -0.000000 76.225800 -17.113899 16.415701 4.181900 2.931600 11.677800 -12.729000 -9.246100 -3.794600 1.840500 -17.401199 -13.203100 17.759701 72.299301 1.111200 7.447700 74.943604 0.005900 0.007600 55.869801 0.003500 0.006600 72.652702 0.005900 6.076100 78.566597 0.006300 0.007800 72.013496 0.005500 0.007500 76.587196 0.006400 7.576300 71.004097 0.005300 0.007500 66.703499 0.004800 0.007300 82.322304 -0.097700 5.568300 75.995796 0.006000 0.007700 42.845901 0.002100 0.005400 -63.226101 0.544600 5.318100 126.504402 1.337400 0.176000 -10.559300 0.383300 0.769900 2.343400 0.000000 -0.000000 -19.917801 -9.601700 3.474400 52.166000 2.556000 -1.821700 -41.999599 2.502900 -5.844000 1.661400 0.000000 0.000000 
0.002941 0.683997 0.216939 -1.580700 10.074800 3.971900 9.990400 9.305800 -4.363300 1.806200 4.221100 -0.129800 4.693400 4.270900 -0.487600 -2.715900 -2.434300 -1.378400 -0.000000 0.000000 -0.000000 -11.292700 -13.610000 -1.223600 -8.398800 0.774100 -1.498900 -56.219601 18.931700 21.029100 -0.000000 -0.000000 -73.980499 7.295800 -5.866800 0.728300 -12.628500 3.701400 11.610100 13.972200 9.084000 15.606400 21.726601 -8.127000 -41.278301 -76.899803 0.012500 0.085400 -77.777100 0.011900 -0.014700 -61.316101 0.007800 -0.013200 -92.872902 2.371900 4.025900 -70.474602 0.010000 -0.014200 -84.505501 0.013600 -0.015000 -76.903603 0.012500 -2.587800 -90.646500 0.015200 -0.015000 -70.038803 0.009900 -0.014100 -71.910599 -5.150300 4.007100 -76.022499 0.011400 -0.014600 -73.566902 0.010800 -0.014400 5.961600 1.064100 4.602800 37.592999 -2.987400 45.527699 0.000000 -0.000000 74.842499 -17.399000 21.394501 1.815400 2.931600 11.677800 -12.729000 -3.645800 -4.323700 0.199800 -15.405400 -13.212800 17.833099 70.040901 0.992300 7.124700 73.728302 0.005700 0.007600 54.654598 0.003300 0.006500 71.137199 0.005700 6.237700 77.765800 0.006200 0.007700 71.206100 0.005400 0.007500 74.338799 0.006100 7.701700 70.651604 0.005300 0.007500 66.345100 0.004700 0.007200 80.974503 -0.097900 5.450300 75.092697 0.005900 0.007700 41.950298 0.002000 0.005300 -71.236702 1.600100 -0.514400 112.983704 1.123700 -0.307700 -15.098600 0.508100 -1.596500 3.168500 -0.000000 0.000000 -4.619500 -11.167700 -0.690500 35.429699 1.876900 -4.610600 -33.540001 4.015300 -1.903800 -7.003900 0.000000 -0.000000 
0.002993 0.697823 0.326927 -0.118900 10.416500 10.425000 10.305300 10.971600 -12.390400 1.223800 4.891600 -0.493300 4.023700 4.946700 -0.874600 -2.678900 -3.199900 -0.060900 -0.000000 0.000000 -0.000000 -7.837000 -17.807899 0.344100 -5.767700 0.324000 0.910700 -55.646500 24.697599 26.240000 0.000000 0.000000 -72.850098 7.578800 -7.699700 0.129800 -12.628400 3.701400 11.610100 13.667700 8.879200 18.351299 23.112301 -8.448500 -43.670200 -78.131302 0.012800 -0.124300 -77.723801 0.011800 -0.014700 -61.253502 0.007800 -0.013200 -95.365196 2.054300 4.518600 -70.315498 0.010000 -0.014100 -84.346298 0.013500 -0.014900 -77.458397 0.012600 -2.302200 -90.635902 0.015200 -0.015000 -70.048897 0.009900 -0.014100 -71.608498 -5.697500 4.936000 -76.294197 0.011500 -0.014600 -73.837799 0.010800 -0.014400 2.691500 0.669900 3.398200 36.492699 -4.311800 44.666500 -0.000000 -0.000000 79.059998 -19.541599 16.607401 1.016500 2.931600 11.677800 -12.729000 1.166900 -4.718200 -0.893200 -14.789900 -13.209800 17.838400 67.498901 0.968400 7.059800 72.721397 0.005600 0.007600 53.647598 0.003200 0.006400 69.069504 0.005400 6.204600 77.337402 0.006200 0.007700 70.779099 0.005300 0.007500 72.727097 0.005800 7.853900 70.222603 0.005200 0.007400 65.908501 0.004700 0.007200 79.609596 -0.098100 5.683400 74.325600 0.005800 0.007600 41.169899 0.002000 0.005200 -74.494202 3.181800 -9.184500 94.625198 8.961100 -0.081100 -17.687599 0.667500 -3.896900 1.960000 -0.000000 0.000000 0.363200 -14.813900 -8.659800 28.975599 3.289900 -5.435400 -1.415200 6.141200 8.367400 -38.103298 0.000000 -0.000000 
0.002637 0.711996 0.435180 1.933200 10.689500 11.840200 9.471900 13.607200 -14.214200 0.497200 5.614400 -0.777700 3.247600 5.645200 -1.195100 -2.100700 -3.797600 -0.022000 -0.000000 0.000000 -0.000000 -5.001400 -23.287001 2.293900 -1.910800 0.268300 0.703800 -58.441502 29.684601 31.642200 0.000000 0.000000 -71.539200 10.380200 -10.011500 1.032600 -12.628500 3.701400 11.610100 13.371000 8.690300 20.913300 25.728201 -8.990900 -48.353199 -82.038498 0.013800 -0.111000 -77.763397 0.011800 -0.014700 -61.293800 0.007800 -0.013200 -100.604401 1.481100 5.409400 -70.101196 0.009900 -0.014100 -84.132004 0.013500 -0.015000 -79.489502 0.013200 -2.058100 -90.616402 0.015200 -0.015000 -70.045303 0.009900 -0.014100 -72.009598 -6.301300 5.965500 -76.060600 0.011400 -0.014600 -73.603401 0.010800 -0.014400 0.867100 0.219100 -0.269200 32.761600 -3.133500 41.868801 -0.000000 -0.000000 83.530296 -21.105900 14.279600 2.458700 2.931600 11.677800 -12.729000 2.398800 -4.899700 -1.142200 -13.573500 -13.226500 17.916800 67.921898 0.918500 6.923400 72.603798 0.005600 0.007500 53.529999 0.003200 0.006400 68.328102 0.005300 5.823600 77.170303 0.006200 0.007700 70.626701 0.005300 0.007500 72.044197 0.005700 7.677100 69.843498 0.005200 0.007400 65.538101 0.004600 0.007200 78.657501 -0.108200 5.504900 74.105301 0.005700 0.007600 40.960201 0.001900 0.005200 -73.076599 1.395800 -14.507700 73.194397 9.963800 1.591000 -21.316299 4.683200 -3.771000 -0.350900 -0.000000 0.000000 1.424100 -15.198100 -10.682300 37.058998 3.106900 -6.903500 5.644000 6.684400 11.401400 -10.256000 0.000000 -0.000000 
0.001545 0.716509 0.542166 2.405600 11.009400 8.689700 7.728600 15.800600 -11.138600 -0.158200 5.994400 -0.434800 2.608200 6.011800 -0.859800 -1.165100 -3.730000 -1.564900 -0.000000 0.000000 -0.000000 -1.988500 -25.940201 4.126600 0.006600 0.137900 0.419200 -61.223499 31.489599 36.502701 0.000000 0.000000 -72.445801 11.649100 -11.025900 1.792100 -12.628400 3.701400 11.610100 16.204100 9.186800 14.241600 23.533701 -9.224600 -50.788700 -80.768997 0.013500 0.919300 -77.195396 0.011700 -0.014600 -60.762699 0.007700 -0.013100 -100.242302 0.783300 6.493900 -69.788200 0.009800 -0.014100 -83.819000 0.013400 -0.014900 -78.293800 0.012800 -1.512400 -89.831596 0.015000 -0.015000 -69.290901 0.009700 -0.014100 -70.882202 -6.987900 7.142700 -75.106400 0.011200 -0.014500 -72.648399 0.010500 -0.014300 -0.776100 -0.000100 -2.351500 30.654900 -0.660000 38.976398 -0.000000 -0.000000 86.796600 -19.766800 11.286300 4.874600 2.931600 11.677800 -12.729000 2.908300 -5.045500 -1.250600 -12.287700 -13.237400 17.967300 67.637604 0.867600 6.784200 72.495796 0.005500 0.007600 53.422001 0.003200 0.006400 67.132004 0.005100 5.408700 77.020500 0.006100 0.007700 70.490303 0.005300 0.007500 71.018204 0.005600 7.439700 69.460800 0.005100 0.007400 65.166100 0.004600 0.007200 77.478897 -0.127300 5.163700 74.175301 0.005800 0.007600 41.049198 0.001900 0.005200 -67.429703 -2.044900 -13.450200 47.700699 9.125800 3.460000 -19.220100 1.599200 -8.923500 -2.274300 -0.000000 -0.000000 4.051200 -13.137500 -5.565400 45.927200 -0.105300 -8.430500 5.192800 1.381200 11.014400 -12.783200 0.000000 -0.000000 
